# File produced by Open Asset Import Library (http://www.assimp.sf.net)
# (assimp v3.1.0)

mtllib AssimpExport.obj.mtl

# 8 vertex positions
v  0.5 0.5 0.5
v  -0.5 0.5 0.5
v  -0.5 -0.5 0.5
v  0.5 -0.5 0.5
v  0.5 -0.5 -0.5
v  -0.5 0.5 -0.5
v  0.5 0.5 -0.5
v  -0.5 -0.5 -0.5

# 0 UV coordinates

# 6 vertex normals
vn 0 0 1
vn 0 0 -1
vn 0 1 0
vn 0 -1 0
vn -1 0 0
vn 1 0 0

# Mesh 'g g g g g g g g g g g g g g g g g g g g g g g g g g g g g g g g g g g g g g g g g g g g g g g g g g g g g g defaultobject' with 11 faces
g g g g g g g g g g g g g g g g g g g g g g g g g g g g g g g g g g g g g g g g g g g g g g g g g g g g g g g defaultobject
usemtl DefaultMaterial
f  1//1 2//1 3//1
f  3//1 4//1 1//1
f  5//2 6//2 7//2
f  6//2 5//2 8//2
f  1//3 7//3 6//3
f  6//3 2//3 1//3
f  4//4 3//4 8//4
f  8//4 5//4 4//4
f  3//5 2//5 6//5
f  3//5 6//5 8//5
f  1//6 4//6 5//6

