# File exported by Houdini 16.5.473 (www.sidefx.com)
# 8 points
# 33 vertices
# 11 primitives
# Bounds: [-0.5, -0.5, -0.5] to [0.5, 0.5, 0.5]
g 
v 0.5 0.5 0.5
v -0.5 0.5 0.5
v -0.5 -0.5 0.5
v 0.5 -0.5 0.5
v 0.5 -0.5 -0.5
v -0.5 0.5 -0.5
v 0.5 0.5 -0.5
v -0.5 -0.5 -0.5
vn 0 0 1
vn 0 0 1
vn 0 0 1
vn 0 0 1
vn 0 0 1
vn 0 0 1
vn 0 0 -1
vn 0 0 -1
vn 0 0 -1
vn 0 0 -1
vn 0 0 -1
vn 0 0 -1
vn 0 1 0
vn 0 1 0
vn 0 1 0
vn 0 1 0
vn 0 1 0
vn 0 1 0
vn 0 -1 0
vn 0 -1 0
vn 0 -1 0
vn 0 -1 0
vn 0 -1 0
vn 0 -1 0
vn -1 0 0
vn -1 0 0
vn -1 0 0
vn -1 0 0
vn -1 0 0
vn -1 0 0
vn 1 0 0
vn 1 0 0
vn 1 0 0
g defaultobject
f 1//1 2//2 3//3
f 3//4 4//5 1//6
f 5//7 6//8 7//9
f 6//10 5//11 8//12
f 1//13 7//14 6//15
f 6//16 2//17 1//18
f 4//19 3//20 8//21
f 8//22 5//23 4//24
f 3//25 2//26 6//27
f 3//28 6//29 8//30
f 1//31 4//32 5//33
